<?xml version="1.0" encoding="iso-8859-1"?>
<!-- Uploaded to: SVG Repo, www.svgrepo.com, Generator: SVG Repo Mixer Tools -->
<svg height="800px" width="800px" version="1.1" id="Layer_1" xmlns="http://www.w3.org/2000/svg" xmlns:xlink="http://www.w3.org/1999/xlink" 
	 viewBox="0 0 511.89 511.89" xml:space="preserve">
<g>
	<path style="fill:#434A54;" d="M138.64,479.892c-5.89,0-10.67,4.765-10.67,10.654c0,5.889,4.78,10.669,10.67,10.669
		c5.889,0,10.669-4.78,10.669-10.669C149.309,484.658,144.529,479.892,138.64,479.892z"/>
	<path style="fill:#434A54;" d="M202.626,479.892c-5.89,0-10.67,4.765-10.67,10.654c0,5.889,4.78,10.669,10.67,10.669
		c5.889,0,10.669-4.78,10.669-10.669C213.295,484.658,208.514,479.892,202.626,479.892z"/>
	<path style="fill:#434A54;" d="M266.611,479.892c-5.889,0-10.67,4.765-10.67,10.654c0,5.889,4.781,10.669,10.67,10.669
		c5.896,0,10.678-4.78,10.678-10.669C277.289,484.658,272.507,479.892,266.611,479.892z"/>
	<path style="fill:#434A54;" d="M330.589,479.892c-5.874,0-10.653,4.765-10.653,10.654c0,5.889,4.779,10.669,10.653,10.669
		c5.905,0,10.685-4.78,10.685-10.669C341.273,484.658,336.494,479.892,330.589,479.892z"/>
	<path style="fill:#434A54;" d="M394.574,479.892c-5.873,0-10.654,4.765-10.654,10.654c0,5.889,4.781,10.669,10.654,10.669
		c5.904,0,10.686-4.78,10.686-10.669C405.259,484.658,400.478,479.892,394.574,479.892z"/>
	<path style="fill:#434A54;" d="M458.559,479.892c-5.874,0-10.653,4.765-10.653,10.654c0,5.889,4.779,10.669,10.653,10.669
		c5.905,0,10.685-4.78,10.685-10.669C469.244,484.658,464.465,479.892,458.559,479.892z"/>
	<path style="fill:#434A54;" d="M74.655,479.892c-5.89,0-10.67,4.765-10.67,10.654c0,5.889,4.78,10.669,10.67,10.669
		c5.889,0,10.669-4.78,10.669-10.669C85.324,484.658,80.544,479.892,74.655,479.892z"/>
	<path style="fill:#434A54;" d="M21.339,106.634c-5.889,0-10.669,4.779-10.669,10.669s4.78,10.67,10.669,10.67
		c5.89,0,10.67-4.78,10.67-10.67S27.228,106.634,21.339,106.634z"/>
	<path style="fill:#434A54;" d="M21.339,170.62c-5.889,0-10.669,4.779-10.669,10.669s4.78,10.67,10.669,10.67
		c5.89,0,10.67-4.78,10.67-10.67S27.228,170.62,21.339,170.62z"/>
	<path style="fill:#434A54;" d="M21.339,234.605c-5.889,0-10.669,4.779-10.669,10.669s4.78,10.67,10.669,10.67
		c5.89,0,10.67-4.78,10.67-10.67S27.228,234.605,21.339,234.605z"/>
	<path style="fill:#434A54;" d="M21.339,298.59c-5.889,0-10.669,4.781-10.669,10.67s4.78,10.67,10.669,10.67
		c5.89,0,10.67-4.781,10.67-10.67S27.228,298.59,21.339,298.59z"/>
	<path style="fill:#434A54;" d="M21.339,362.576c-5.889,0-10.669,4.779-10.669,10.669s4.78,10.67,10.669,10.67
		c5.89,0,10.654-4.78,10.654-10.67S27.228,362.576,21.339,362.576z"/>
	<path style="fill:#434A54;" d="M21.339,426.561c-5.889,0-10.669,4.779-10.669,10.669s4.78,10.67,10.669,10.67
		c5.89,0,10.654-4.78,10.654-10.67S27.228,426.561,21.339,426.561z"/>
	<path style="fill:#434A54;" d="M21.339,42.649c-5.889,0-10.669,4.779-10.669,10.669s4.78,10.67,10.669,10.67
		c5.89,0,10.67-4.78,10.67-10.67S27.228,42.649,21.339,42.649z"/>
</g>
<path style="fill:#656D78;" d="M501.237,490.547H21.339V10.656c0-5.89-4.78-10.653-10.669-10.653C4.78,0.003,0,4.767,0,10.656
	v490.56c0,5.89,4.78,10.67,10.67,10.67h490.567c5.874,0,10.653-4.78,10.653-10.67S507.111,490.547,501.237,490.547z"/>
<path style="fill:#A0D468;" d="M501.237,85.311h-63.985c-5.904,0-10.686,4.764-10.686,10.669c0,5.89,4.781,10.654,10.686,10.654
	h38.241L298.595,283.516l-67.086-67.109c-1.938-1.938-4.608-3.124-7.561-3.124c-2.938,0-5.608,1.187-7.53,3.124L67.125,365.701
	c-1.937,1.937-3.14,4.593-3.14,7.545c0,5.89,4.78,10.67,10.67,10.67c2.952,0,5.623-1.203,7.545-3.141l141.749-141.748l67.117,67.109
	c1.938,1.921,4.593,3.124,7.529,3.124c2.969,0,5.624-1.203,7.561-3.124l184.396-184.411v38.21c0,0,0,0.016,0,0.031
	c0,5.89,4.779,10.654,10.685,10.654c5.874,0,10.653-4.765,10.653-10.654l0,0V95.98C511.89,90.075,507.111,85.311,501.237,85.311z"/>
</svg>