<?xml version="1.0" encoding="utf-8"?>
<!-- Uploaded to: SVG Repo, www.svgrepo.com, Generator: SVG Repo Mixer Tools -->
<svg width="800px" height="800px" viewBox="0 0 74.605 74.605" xmlns="http://www.w3.org/2000/svg">
  <g id="pie_chart_3_sections" data-name="pie chart 3 sections" transform="translate(-666.976 -1001.755)">
    <path id="Path_386" data-name="Path 386" d="M704.28,1001.755a37.3,37.3,0,1,0,37.3,37.3h-37.3Z" fill="#b9d613"/>
    <path id="Path_387" data-name="Path 387" d="M731.986,1014.171c0,.008.015.016.02.021a.371.371,0,0,0,.041.045C732.026,1014.218,732.006,1014.192,731.986,1014.171Z" fill="#333"/>
    <path id="Path_388" data-name="Path 388" d="M732.006,1014.192c-.332-.365-.673-.732-1.018-1.086l-16.842,19.963H741.06A37.2,37.2,0,0,0,732.006,1014.192Z" fill="#27b7ff"/>
    <path id="Path_389" data-name="Path 389" d="M722.987,1006.851c-.03-.016-.063-.036-.1-.051-.883-.518-1.8-.985-2.721-1.426-.188-.086-.376-.168-.564-.254-.787-.361-1.591-.685-2.411-.99-.264-.1-.528-.2-.792-.289-.79-.276-1.589-.514-2.4-.729-.277-.074-.551-.162-.833-.23-1.071-.266-2.157-.494-3.264-.66v27.144l16.859-19.992A37.611,37.611,0,0,0,722.987,1006.851Z" fill="#f44b41"/>
  </g>
</svg>