<svg version="1.1" id="Layer_1" xmlns="http://www.w3.org/2000/svg" xmlns:xlink="http://www.w3.org/1999/xlink" x="0px" y="0px" style="enable-background:new 0 0 512 512;" xml:space="preserve" viewBox="31.17 46.18 449.15 420.93">
<style type="text/css">
	.st0{fill-rule:evenodd;clip-rule:evenodd;}
	.st1{fill-rule:evenodd;clip-rule:evenodd;fill:#F58220;}
	.st2{fill-rule:evenodd;clip-rule:evenodd;fill:#8EBBD0;}
	.st3{fill-rule:evenodd;clip-rule:evenodd;fill:#FFFFFF;}
	.st4{fill-rule:evenodd;clip-rule:evenodd;fill:#00A651;}
</style>
<g>
	<polygon class="st0" points="218.9,71.4 274.6,132.5 111.2,281.4 55.5,220.2 218.9,71.4  "/>
	<polygon class="st1" points="217.9,92 253.9,131.6 112.2,260.7 76.2,221.2 217.9,92  "/>
	<path class="st2" d="M296.8,56.3c11.6,12.7,10.6,32.2-2,43.8c-12.7,11.5-32.3,10.6-43.8-2.1c-11.5-12.7-10.6-32.3,2.1-43.8   C265.6,42.8,285.2,43.7,296.8,56.3L296.8,56.3z"/>
	<polygon class="st0" points="290.1,149.6 345.8,210.7 182.5,359.6 126.8,298.4 290.1,149.6  "/>
	<polygon class="st3" points="289.2,170.3 325.2,209.8 183.5,338.9 147.5,299.4 289.2,170.3  "/>
	<path class="st2" d="M368.1,134.5c11.5,12.7,10.6,32.3-2,43.8c-12.6,11.5-32.3,10.6-43.8-2c-11.6-12.7-10.6-32.3,2-43.8   C336.9,121,356.5,121.9,368.1,134.5L368.1,134.5z"/>
	<polygon class="st0" points="363.3,229.9 419,291 255.7,439.9 199.9,378.7 363.3,229.9  "/>
	<polygon class="st4" points="362.3,250.5 398.4,290.1 256.7,419.2 220.6,379.7 362.3,250.5  "/>
	<path class="st2" d="M441.2,214.8c11.6,12.7,10.6,32.3-2,43.8c-12.7,11.5-32.3,10.6-43.8-2.1c-11.5-12.6-10.6-32.2,2.1-43.8   C410.1,201.3,429.7,202.2,441.2,214.8L441.2,214.8z"/>
	<path d="M275.7,467.1l-13.5-14.9l6.6-6l2.3,2.5l-4.8,4.4l3,3.3l4.5-4.1l2.3,2.5l-4.5,4.1l3.7,4l5-4.5l2.3,2.5L275.7,467.1   L275.7,467.1z M284,459.5l-13.5-14.8l1.8-1.6l11.2,12.2l4.4-4.1l2.3,2.5L284,459.5L284,459.5z M291.6,452.6L278,437.8l6.6-6   l2.3,2.5l-4.8,4.4l3,3.3l4.5-4.1l2.3,2.5l-4.5,4.1l3.7,4l5-4.5l2.3,2.5L291.6,452.6L291.6,452.6z M300.5,434.4l2.6-0.7   c1.2,1.9,1.9,3.6,2,4.9c0.1,1.3-0.3,2.4-1.3,3.3c-1.2,1.1-2.7,1.3-4.5,0.7c-2.1-0.7-4.3-2.2-6.5-4.6c-2.3-2.5-3.7-4.9-4.2-7.1   c-0.4-1.9,0-3.4,1.2-4.5c1-0.9,2.3-1.2,3.8-0.9c1.1,0.3,2.4,0.9,3.8,2l-1.1,2.3c-0.8-0.7-1.6-1.1-2.4-1.2c-0.7-0.1-1.3,0-1.8,0.5   c-0.7,0.6-0.8,1.5-0.5,2.6c0.3,1.1,1.3,2.6,2.9,4.4c1.7,1.9,3.1,3,4.2,3.5c1.1,0.4,2,0.3,2.7-0.3c0.5-0.4,0.6-1.1,0.5-1.9   C301.9,436.7,301.4,435.7,300.5,434.4L300.5,434.4z M310.8,435.1l-11.3-12.4l-2.6,2.4l-2.3-2.5l7.1-6.4l2.3,2.5l-2.6,2.4l11.3,12.3   L310.8,435.1L310.8,435.1z M316.3,430.1l-13.6-14.9l1.8-1.6l13.6,14.9L316.3,430.1L316.3,430.1z M312.8,419.8   c-1.6-1.8-2.7-3.4-3.4-4.9c-0.7-1.5-0.9-2.8-0.8-3.9c0.1-1.1,0.6-2.1,1.5-2.9c1.3-1.2,2.9-1.4,5-0.8c2,0.6,4.1,2.1,6.4,4.6   c2.3,2.5,3.6,4.8,4,7c0.4,1.9,0,3.5-1.3,4.6c-1.3,1.2-2.8,1.5-4.7,1C317.2,423.8,315,422.3,312.8,419.8L312.8,419.8z M314.5,418.1   c1.6,1.7,3,2.8,4.2,3.2c1.2,0.4,2.2,0.3,2.9-0.3c0.7-0.7,0.9-1.6,0.6-2.9c-0.3-1.3-1.2-2.8-2.9-4.5c-1.6-1.7-3-2.8-4.2-3.2   c-1.2-0.4-2.2-0.3-2.9,0.4c-0.7,0.7-1,1.7-0.7,2.9C312,414.8,313,416.3,314.5,418.1L314.5,418.1z M329.5,418.1L316,403.2l1.7-1.6   l12.7,6.6l-9-9.9l1.7-1.5l13.6,14.9l-1.8,1.7l-12.4-6.5l8.9,9.7L329.5,418.1L329.5,418.1z M342.6,396.1l2.6-0.7   c1.2,1.9,1.9,3.5,2,4.9c0.1,1.3-0.4,2.4-1.3,3.3c-1.1,1-2.6,1.3-4.5,0.7c-2.1-0.7-4.2-2.2-6.5-4.6c-2.3-2.5-3.7-4.9-4.2-7.1   c-0.4-1.9,0-3.4,1.2-4.5c1-0.9,2.3-1.2,3.8-0.9c1.1,0.2,2.3,0.9,3.7,2l-1.1,2.3c-0.9-0.7-1.6-1.1-2.4-1.2c-0.7-0.1-1.3,0-1.8,0.4   c-0.6,0.6-0.8,1.5-0.5,2.6c0.3,1.2,1.3,2.7,2.9,4.5c1.7,1.9,3.1,3,4.2,3.4c1.1,0.4,2,0.4,2.6-0.2c0.5-0.5,0.7-1.1,0.6-1.9   C344,398.4,343.5,397.3,342.6,396.1L342.6,396.1z M343.8,391.6c-1.6-1.8-2.7-3.4-3.4-4.9c-0.7-1.5-0.9-2.8-0.8-3.9   c0.1-1.1,0.6-2.1,1.4-2.9c1.3-1.1,2.9-1.4,5-0.8c2,0.6,4.1,2.1,6.4,4.6c2.3,2.5,3.6,4.8,4.1,7c0.4,1.9-0.1,3.4-1.3,4.6   c-1.3,1.2-2.9,1.5-4.7,0.9C348.2,395.6,346,394,343.8,391.6L343.8,391.6z M345.6,389.8c1.6,1.7,3,2.8,4.2,3.2   c1.2,0.4,2.2,0.3,2.9-0.3c0.7-0.6,0.9-1.6,0.6-2.8c-0.3-1.3-1.3-2.8-2.9-4.5c-1.6-1.7-3-2.8-4.2-3.2c-1.2-0.4-2.2-0.3-2.9,0.4   c-0.7,0.7-1,1.6-0.7,2.8C343,386.5,344,388,345.6,389.8L345.6,389.8z M360.5,389.8L347,374.9l2.7-2.5l10.8,8.7l-7.6-11.6l2.7-2.5   l13.6,14.9l-1.7,1.5l-10.6-11.7l8.9,13.3l-1.7,1.6l-12.4-10.1l10.7,11.7L360.5,389.8L360.5,389.8z M370.9,380.4l-13.6-14.9l2.7-2.4   l10.9,8.7l-7.7-11.6l2.7-2.4l13.6,14.9l-1.7,1.5l-10.7-11.7l8.9,13.3l-1.7,1.6l-12.4-10.1l10.7,11.7L370.9,380.4L370.9,380.4z    M381.2,371l-13.5-14.9l1.8-1.6l13.6,14.9L381.2,371L381.2,371z M379.8,363.4l1.5-1.9c1.9,1.8,3.4,2.1,4.5,1.1   c0.5-0.5,0.8-1.1,0.7-1.7c-0.1-0.7-0.3-1.3-0.8-1.9c-0.3-0.3-0.6-0.6-1-0.7c-0.3-0.1-0.7-0.2-1-0.1c-0.4,0.1-1.1,0.3-2.3,0.7   c-1.1,0.4-1.9,0.6-2.6,0.5c-0.7-0.1-1.4-0.3-2.2-0.7c-0.8-0.4-1.5-1-2.1-1.7c-0.7-0.8-1.3-1.7-1.6-2.5c-0.3-0.9-0.4-1.7-0.2-2.5   c0.2-0.8,0.6-1.5,1.3-2.1c1-0.9,2.2-1.3,3.5-1.1c1.3,0.2,2.6,1.1,4,2.5l-1.7,1.8c-0.8-0.7-1.5-1.1-2-1.2c-0.6-0.1-1.1,0.1-1.6,0.5   c-0.5,0.4-0.7,0.9-0.7,1.4c0,0.5,0.2,1,0.5,1.4c0.4,0.4,0.8,0.6,1.3,0.7c0.5,0.1,1.3-0.1,2.5-0.6c1.2-0.5,2.2-0.7,3-0.6   c0.8,0,1.6,0.3,2.3,0.7c0.8,0.4,1.6,1.1,2.4,2c1.2,1.3,1.9,2.6,2.1,4c0.2,1.4-0.3,2.7-1.5,3.8C385.9,367.1,383.2,366.5,379.8,363.4   L379.8,363.4z M388.1,355.8l1.5-1.9c1.9,1.7,3.5,2.1,4.5,1.1c0.5-0.5,0.8-1.1,0.7-1.7c0-0.7-0.3-1.3-0.8-1.9   c-0.3-0.3-0.6-0.6-0.9-0.7c-0.4-0.1-0.7-0.2-1-0.1c-0.4,0.1-1.1,0.3-2.3,0.7c-1,0.4-1.9,0.6-2.6,0.5c-0.7,0-1.4-0.3-2.2-0.7   c-0.8-0.4-1.4-1-2.1-1.7c-0.7-0.8-1.2-1.7-1.6-2.5c-0.3-0.9-0.4-1.8-0.2-2.5c0.2-0.7,0.6-1.5,1.3-2.1c1-0.9,2.2-1.3,3.5-1.1   c1.3,0.3,2.6,1.1,4,2.5l-1.7,1.8c-0.8-0.7-1.5-1.1-2.1-1.2c-0.5-0.1-1,0.1-1.5,0.6c-0.5,0.4-0.7,0.9-0.7,1.4c0,0.5,0.2,1,0.6,1.4   c0.4,0.4,0.8,0.6,1.3,0.7c0.5,0.1,1.3-0.1,2.4-0.6c1.2-0.5,2.2-0.7,3-0.6c0.8,0,1.6,0.3,2.3,0.7c0.8,0.4,1.6,1.1,2.4,2   c1.2,1.3,1.9,2.7,2.1,4.1c0.2,1.4-0.3,2.7-1.5,3.8C394.2,359.6,391.5,359,388.1,355.8L388.1,355.8z M401.2,352.7l-13.6-14.9   l1.8-1.6l13.5,14.9L401.2,352.7L401.2,352.7z M397.7,342.5c-1.6-1.8-2.7-3.4-3.4-4.9c-0.7-1.5-0.9-2.8-0.8-3.9   c0.1-1.1,0.6-2.1,1.5-2.9c1.3-1.2,2.9-1.4,5-0.8c2,0.6,4.1,2.1,6.4,4.6c2.3,2.5,3.6,4.8,4.1,7c0.4,1.9-0.1,3.5-1.3,4.6   c-1.3,1.2-2.9,1.5-4.7,1C402.1,346.5,399.9,345,397.7,342.5L397.7,342.5z M399.4,340.7c1.6,1.7,3,2.8,4.2,3.2   c1.2,0.4,2.2,0.3,2.9-0.3c0.7-0.7,0.9-1.6,0.6-2.9c-0.3-1.3-1.3-2.8-2.9-4.5c-1.6-1.7-2.9-2.8-4.1-3.2c-1.2-0.4-2.2-0.3-2.9,0.4   c-0.7,0.7-1,1.7-0.7,2.9C396.9,337.5,397.8,339,399.4,340.7L399.4,340.7z M414.4,340.7l-13.6-14.9l1.7-1.6l12.7,6.6l-9-9.9l1.7-1.5   l13.6,14.9l-1.8,1.7l-12.4-6.5l8.8,9.7L414.4,340.7L414.4,340.7z M419.7,322.4c-1.6-1.8-2.7-3.4-3.4-4.9c-0.7-1.5-0.9-2.8-0.8-3.9   c0.1-1.1,0.6-2.1,1.5-2.9c1.3-1.1,2.9-1.4,4.9-0.8c2,0.6,4.1,2.1,6.4,4.6c2.3,2.5,3.6,4.8,4,7c0.4,1.9-0.1,3.4-1.3,4.6   c-1.3,1.2-2.8,1.5-4.7,0.9C424.2,326.4,422,324.8,419.7,322.4L419.7,322.4z M421.5,320.6c1.6,1.7,3,2.8,4.2,3.2   c1.2,0.4,2.2,0.3,2.9-0.3c0.7-0.6,0.9-1.6,0.6-2.8c-0.3-1.3-1.2-2.8-2.8-4.5c-1.6-1.8-3-2.8-4.2-3.2c-1.2-0.4-2.2-0.3-2.9,0.4   c-0.7,0.7-0.9,1.6-0.7,2.8C418.9,317.4,419.9,318.9,421.5,320.6L421.5,320.6z M436.5,320.6l-13.5-14.9l6.1-5.5l2.3,2.5l-4.3,3.9   l3.2,3.5l3.7-3.4l2.3,2.5l-3.7,3.4l5.8,6.4L436.5,320.6L436.5,320.6z M447.5,310.6l-13.6-14.9l1.8-1.6l13.5,14.9L447.5,310.6   L447.5,310.6z M451,307.4l-13.6-14.9l1.8-1.6l12.7,6.6l-9.1-10l1.7-1.5L458,301l-1.8,1.7l-12.4-6.5l8.8,9.7L451,307.4L451,307.4z    M446.3,284.4l3.3-3c0.8-0.8,1.6-1.2,2.2-1.3c0.6-0.1,1.4-0.1,2.3,0.2c0.9,0.3,1.9,0.8,3,1.6c1.1,0.8,2.3,1.9,3.6,3.3   c1.2,1.3,2.1,2.5,2.7,3.7c0.6,1.1,1,2.1,1.2,3c0.2,0.8,0.2,1.6-0.1,2.3c-0.2,0.7-0.7,1.4-1.4,2l-3.4,3.1L446.3,284.4L446.3,284.4z    M450.4,285.3l9,9.9l1.4-1.2c0.6-0.5,0.9-1,1.1-1.3c0.1-0.4,0.1-0.8,0-1.3c-0.1-0.4-0.4-1-0.9-1.8c-0.5-0.7-1.2-1.6-2.2-2.7   c-1-1.1-1.9-1.9-2.6-2.5c-0.7-0.5-1.3-0.9-1.9-1c-0.6-0.1-1.1-0.1-1.5,0.1c-0.4,0.1-0.9,0.5-1.6,1.2L450.4,285.3L450.4,285.3z    M468.8,291.1l-13.6-14.9l1.8-1.6l13.5,14.9L468.8,291.1L468.8,291.1z M480.3,280.6l-1.9,1.8l-3.9-2.7L471,283l2.4,4l-1.9,1.8   l-10.1-18l1.9-1.7L480.3,280.6L480.3,280.6z M471.7,277.8l-6.3-4.4l3.8,6.6L471.7,277.8L471.7,277.8z"/>
	<path d="M47.6,243.6l1.2-4l-1.3-1.4l-1.2,4L47.6,243.6L47.6,243.6z M43.2,250.7l-5.3-5.8l3.6-3.1c1.9-1.7,4.2-5.8,1.1-9.2   c-1.9-2.1-4.6-1.9-6.3-0.4c-1.8,1.7-2.2,4.8,0.2,9.1l-1.1,0.8l-1.5-1.6c-0.6-0.7-1.4-0.5-1.8-0.1c-1.1,1-1.2,6.8-0.3,7.8   c0.6,0.7,1.4,0.4,3.1-1.1l5.5,6L43.2,250.7L43.2,250.7z M40.7,237.9l-2.7,2.2c-1.3-2.1-1.2-3.7,0.1-4.9c1-0.9,2.8-0.9,3.4-0.3   C41.9,235.5,42.1,236.7,40.7,237.9L40.7,237.9z M37.1,260.9l14.4-13.1l3.5,3.8l1.2-4l-8.2-9l-1.2,4l2.1,2.3l-12.4,11.3L37.1,260.9   L37.1,260.9z M43.8,268.2l14.4-13.1l3.5,3.8l1.2-4l-8.2-9l-1.2,4l2.1,2.3l-12.4,11.3L43.8,268.2L43.8,268.2z M60.1,257.3l4.5,4.9   l-4.4,4c-0.4,0.3-0.7,0.4-0.9,0.2c-0.5-0.6-0.4-2-1.2-2.9c-0.4-0.4-1.6-0.3-1.9,0c-0.5,0.5-0.8,1.8-1.2,4.2l-1.7,11.4l2.2,0.1   c0.2-4.2,0.5-6.7,1-8.4c1.8,0.4,3.8,0.3,5-0.8l5.6-5.1l4.9,5.4l1.2-4l-11.9-13L60.1,257.3L60.1,257.3z M79.7,278.7l-2.5,2.3   l-3.8-4.2c-2.7-3-5.7-2.8-7.3-1.3c-2,1.8-2.8,4.6-4.4,11.8l2,0.4c0.4-3.3,1.4-6.2,2.8-7.5c1.6-1.5,3.4-1.9,5.3,0.2l2.9,3.2   l-7.2,6.5l0.6,4.7l14.4-13.1l2.9,3.2l1.2-4l-14.8-16.2l-1.2,4L79.7,278.7L79.7,278.7z M91.2,291.4l1.9,2.1l-12.4,11.3l0.6,4.6   l14.4-13.1l3.5,3.8l1.2-4l-2.9-3.2c0.2-0.4,0.6-0.7,0.9-1c2-1.9,4.4-2.1,6.4,0.1c2.1,2.3,4.2,8,4.2,11.8l1.6-0.3   c0.2-3.5-1.9-12.3-4.4-15.1c-2.4-2.7-5.5-3.2-7.8-1.1c-1.2,1.1-2,2.6-2.4,4l-3.7-4.1L91.2,291.4L91.2,291.4z M101.3,313.9l-6.7,6.1   l0.6,4.7l14.4-13.1l2.9,3.2l1.2-4l-14.8-16.2l-1.2,4l9.2,10.1l-3,2.7l-7-7.7c-0.4-0.5-1.2-0.4-1.6-0.1c-1.3,1.2-2.1,6.4-1.3,7.1   c0.6,0.6,1.1,0.8,1.6,0.3l1.1-1c0.4-0.4,0.9-0.3,1.1,0L101.3,313.9L101.3,313.9z M112.3,333.4l-2.9,2.6l0.6,4.7l14.4-13.1l2.9,3.1   l1.2-4l-16.2-17.8l-1.2,4l10.6,11.7l-4.3,4c0.2-1.8,0.2-3.7,0.1-4.5c-0.1-0.8-1-2.2-1.8-3c-2.7-3-6.7-3.4-8.9-1.4   c-2.5,2.3-2.9,8-0.2,10.9C107.6,332.1,109.5,332.9,112.3,333.4L112.3,333.4z M107.3,327.2c-0.8-0.9-0.8-2.2,0.3-3.2   c1.7-1.5,4.3-1.6,5.8,0.1c1.4,1.6,2.3,3.8,2.4,6.1l-0.4,0.3C112.8,330,108.5,328.5,107.3,327.2L107.3,327.2z M116.1,347.5   l14.4-13.1l3.5,3.8l1.2-4l-8.2-9l-1.2,4l2.1,2.3l-12.4,11.3L116.1,347.5L116.1,347.5z M131.3,330.5l1.3,1.4c0.6-2,1.7-4.1,2.4-4.7   c1.1-1,2-1,2.9,0c0.6,0.7,0.4,1.6-0.7,3.3l1.4,0.8c3-3.5,2.7-5.7,1.5-7.1c-1.5-1.7-4.1-1.9-5.9-0.3   C132.8,325,131.8,328.3,131.3,330.5L131.3,330.5z M136.7,359.9l-3.1,2.8l0.6,4.7l14.4-13.1l2.9,3.2l1.2-4l-18.8-20.7l-1.2,4   l13.2,14.6l-5.6,5.1c-4.7-0.1-8.2-1.1-9.9-2.9c-0.7-0.7-0.7-1.4-0.1-2c1.1-1,3.5-1.3,4.8-0.8c0.9,0.3,1.9,1.2,2.7,2.1l2.2,2.4   l1.2-4l-9.7-10.7l-1.2,4l1.7,1.9c-0.8,0.2-1.6,0.5-2.4,1.3c-2,1.8-2.2,6.9,0.1,9.4C130.8,358.5,133.5,359.6,136.7,359.9   L136.7,359.9z M153.5,371.1l-6.7,6.1l0.6,4.7l14.4-13.1l2.9,3.2l1.2-4l-14.8-16.2l-1.2,4l9.2,10.1l-3,2.7l-7-7.7   c-0.4-0.5-1.2-0.4-1.6,0c-1.3,1.1-2.1,6.3-1.4,7.1c0.6,0.6,1.2,0.8,1.7,0.3l1.1-1c0.4-0.4,0.8-0.3,1.1,0L153.5,371.1L153.5,371.1z    M166.1,385.1l-1.8-0.5c-2.1,5.1-2.1,10.4,0.4,13.1c2.6,2.8,6.2,3.2,8.3,1.2c0.5-0.5,1.1-1.2,1.4-2h0.1c0.1,0.9,1.2,3.3,1.5,3.7   c0.4,0.4,0.8,0.8,1.2,1l-4.6,4.2l0.6,4.7l14.4-13.1l2.9,3.2l1.2-4l-7.4-8.2l-1.3,4l1.9,2.1l-3.9,3.6c-0.8,0.8-3.4-0.1-4.6-1.4   c-0.6-0.7-1.1-2.1-1.1-3.6c1.7,0.4,2.7,0,3.5-0.7c2.3-2.1,2.4-8.1-0.1-10.8c-0.8-0.8-3.4-2.5-5-3.2l-1.4,4c2.7,1.3,5.1,2.9,5.7,3.6   c0.7,0.8,0.9,1.6,0.1,2.4c-1.4,1.3-4,1-7.2-1.7c-0.7-0.6-1-0.6-1.2-0.4c-0.2,0.2-0.7,2.5-0.8,3.9c1.4,1,3.3,1.9,4.6,2.3   c-0.2,0.8-0.8,1.9-1.7,2.7c-1.5,1.3-4,0.9-5.7-1C164.6,392.3,164.5,389.2,166.1,385.1L166.1,385.1z M179.5,417.1l14.4-13.1l3.5,3.9   l1.2-4l-8.2-9l-1.2,4l2.1,2.3l-12.3,11.3L179.5,417.1L179.5,417.1z M197.1,426.5L194,429l0.8,4.9l14.4-13.1l2.9,3.2l1.2-4   L197,402.1l-1.2,4l4.6,5c-0.3,1.1-0.9,2.1-1.3,2.4c-0.3,0.3-1,0.3-1.5,0.1c-0.9-0.3-3.4-1.7-4.3-2.4c-3.4,4.5-3.8,9.8-1.3,12.5   C193,424.9,195.2,426,197.1,426.5L197.1,426.5z M206.5,417.9l-5.9,5.4c-2.3-0.3-6.1-1.9-7.2-3.1c-1.4-1.5-1.3-2.6-0.5-3.4   c0.7-0.6,1.4-0.5,2.4,0.2c2.4,1.6,3.3,1.8,3.9,1.2c0.6-0.5,1.8-2.9,2.8-5.2L206.5,417.9L206.5,417.9z M200.9,440.7l14.4-13.1   l3.5,3.9l1.2-4l-8.2-9l-1.2,4l2.1,2.3L200.4,436L200.9,440.7L200.9,440.7z M215.9,424.4l1.2,0.5c1.4-4.7,2.5-8,2.5-10.6   c0-2.2-0.8-3.2-1.3-3.7c-0.7-0.8-1.6-1.7-2.2-1.1c-0.4,0.4-0.5,0.8-1.6,4c0.6,0.3,1.4,0.9,2,1.6c0.6,0.6,0.8,1.4,0.7,2.3   C217.2,419,216.9,420.8,215.9,424.4L215.9,424.4z M223.9,437l3.8,4.2l-12.3,11.3l0.6,4.7l14.4-13.1l2.9,3.2l1.2-4l-15.7-17.2   l-1.2,4l3.7,4.1l-4.5,4.1l-1.6-1.7c-0.4-0.4-1.3-0.5-1.6-0.2c-1.5,1.3-0.5,7.8,0,8.3c0.7,0.7,1.4,0.6,2.4-0.3L223.9,437L223.9,437z   "/>
</g>
</svg>