<svg id="ee1f0gc8ojE1" xmlns="http://www.w3.org/2000/svg" xmlns:xlink="http://www.w3.org/1999/xlink" viewBox="0 0 300 300" shape-rendering="geometricPrecision" text-rendering="geometricPrecision" project-id="a83cc40a142c4557bd405d09299a9a07" export-id="c3322f7a7b7d4054b98b3ddd93f88b3f" cached="false" width="300" height="300"><path d="" fill="none" stroke="#3f5787" stroke-width="0.6"/><line x1="0" y1="-140.385895" x2="0" y2="140.385895" transform="translate(19.261477 149.700599)" fill="none" stroke="#000" stroke-width="3"/><line x1="-140.053227" y1="0" x2="140.053227" y2="0" transform="translate(150.665336 279.441118)" fill="none" stroke="#000" stroke-width="3"/><ellipse rx="11.144378" ry="11.144378" transform="translate(67.515549 245.024443)" stroke-width="0"/><ellipse rx="11.144378" ry="11.144378" transform="translate(45.515549 222.712542)" stroke-width="0"/><ellipse rx="11.144378" ry="11.144378" transform="translate(94.787175 216.712542)" stroke-width="0"/><ellipse rx="11.144378" ry="11.144378" transform="translate(121.787175 232.712542)" stroke-width="0"/><ellipse rx="11.144378" ry="11.144378" transform="translate(72.787175 204.712542)" stroke-width="0"/><ellipse rx="11.144378" ry="11.144378" transform="translate(84.804305 177.423786)" stroke-width="0"/><ellipse rx="11.144378" ry="11.144378" transform="translate(119.804305 201.423786)" stroke-width="0"/><ellipse rx="11.144378" ry="11.144378" transform="translate(116.804305 171.423786)" stroke-width="0"/><ellipse rx="11.144378" ry="11.144378" transform="translate(130.804305 143.423786)" stroke-width="0"/><ellipse rx="11.144378" ry="11.144378" transform="translate(157.804305 123.423786)" stroke-width="0"/><ellipse rx="11.144378" ry="11.144378" transform="translate(199.804305 97.423786)" stroke-width="0"/><ellipse rx="11.144378" ry="11.144378" transform="translate(140.804305 98.423786)" stroke-width="0"/><ellipse rx="11.144378" ry="11.144378" transform="translate(173.804305 88.423786)" stroke-width="0"/><ellipse rx="11.144378" ry="11.144378" transform="translate(211.804305 68.423786)" stroke-width="0"/><ellipse rx="11.144378" ry="11.144378" transform="translate(241.804305 62.423786)" stroke-width="0"/><ellipse rx="11.144378" ry="11.144378" transform="translate(242.804305 31.423786)" stroke-width="0"/><ellipse rx="11.144378" ry="11.144378" transform="translate(146.804305 168.423786)" stroke-width="0"/><ellipse rx="11.144378" ry="11.144378" transform="translate(167.804305 148.423786)" stroke-width="0"/><ellipse rx="11.144378" ry="11.144378" transform="translate(185.804305 120.423786)" stroke-width="0"/><ellipse rx="11.144378" ry="11.144378" transform="translate(209.804305 131.423786)" stroke-width="0"/><ellipse rx="11.144378" ry="11.144378" transform="translate(238.804305 96.423786)" stroke-width="0"/><line x1="-119.427811" y1="119.427811" x2="119.427811" y2="-119.427811" transform="translate(150 149.367931)" fill="none" stroke="#f00" stroke-width="5"/></svg>
