<svg id="eRUNbQ9DeWa1" xmlns="http://www.w3.org/2000/svg" xmlns:xlink="http://www.w3.org/1999/xlink" viewBox="0 0 500 500" shape-rendering="geometricPrecision" text-rendering="geometricPrecision" project-id="71ca2d90b8134445b1690e9e5b897394" export-id="668f58fcdde842f3bf181ea9db3a7391" cached="false" width="500" height="500"><path d="M546.279859,53.673576C473.449617,92.949052,359.753174,219.286279,352.571337,274.277188v26.560439v24.60711c-4.66367,36.217667,132.683199,104.993124,193.708522,93.357096" transform="translate(-55.924709 20.306725)" fill="rgba(194,198,247,0.79)" stroke="rgba(63,87,135,0)" stroke-width="1.344"/><path d="M545.596167,116.963972c-68.466211,40.245261-172.460329,116.393072-193.02483,168.410056v15.463599v16.093555c-3.34533,30.944307,133.325201,48.856539,193.708522,39.78852" transform="translate(-55.924709 20.306725)" fill="#9fa6ec" stroke="rgba(63,87,135,0)" stroke-width="1.344"/><path d="M75.648132,397.017903l7.05516-10.817911l7.525503,6.114471l4.70344-15.991696l6.114471.470344l8.556517,24.709028l2.706407-9.187676l3.866297,4.70344l6.186075-17.038153l6.701583,12.334713l6.701581-29.088669l4.381804.257752l8.892484,33.534355l3.350791-17.038151l6.443829-3.656984l3.350792-17.349904l3.093038,9.279112l6.295577-9.433292l3.358386-11.544451l4.827678.419798l8.186064,29.099077l3.148486-9.158663l10.075156-15.742432l2.938586,5.877174l4.61778-1.049495l2.518788-20.150313l6.296972-13.85334l10.075156,40.509752l3.778182-13.642668l6.296972-.839597l3.148486-23.298799l6.71677,5.037578l9.235559-25.187891l9.865257,51.635176l3.358385-11.544451l4.407881-1.469294l3.148485,9.23556l2.51879-27.076983l4.407881,5.877175l3.358385-5.457377l5.135841-39.229528l4.118353,6.17753l8.861608,51.371258l6.909094-21.983139l3.528538,4.45968l2.675588-19.574037l7.041021-1.126563l5.751801-54.134617l13.533655,72.989923l4.581013-26.761155" transform="translate(-55.924689 20.306737)" fill="none" stroke="#000" stroke-width="3"/><path d="M349.994086,298.683565l5.923114,4.118l2.886275-23.147076l2.984993,2.436729l4.020602-3.350502l5.845153-54.111287l4.085018,5.033438l9.302037,76.19235l2.947731-18.590516l3.660386-6.484327l3.579937,7.843683l3.098801-30.716368l3.306168,4.268412l3.774953-4.293084l6.086172-63.213146l3.875254-.230213l9.094588,92.365313l2.988252-17.793687l3.871144-2.24119l3.259912,12.884393l3.102356-25.416632l3.305059,7.251876l3.294264-7.660403l6.225094-73.616265l3.84749-7.478828l2.773755,53.386144l6.686275,57.122345l6.491152-27.726968l3.662612,9.907575l2.874014-35.76047l3.441936,5.029718l3.57312-14.292481l5.730895-72.770415l4.102023-6.022119l3.569366,59.727527l6.469678,53.358969l2.695025-25.031202l3.547012-6.631866l3.148691,13.608613l6.494467-39.350618l3.590183-6.038563l6.412316-85.585957l3.950598,8.806543l9.20908,122.910214l3.49881-22.502151" transform="translate(-55.924697 20.306742)" fill="none" stroke="#f00" stroke-width="3"/><path d="M65.569559,50.570604v388.005069h480.7103" transform="translate(-55.924709 20.306727)" fill="none" stroke="#3f5787" stroke-width="10.34"/></svg>
