<svg xmlns="http://www.w3.org/2000/svg" xmlns:xlink="http://www.w3.org/1999/xlink" version="1.1" width="256" height="256" viewBox="0 0 256 256" xml:space="preserve">

<defs>
</defs>
<g style="stroke: none; stroke-width: 0; stroke-dasharray: none; stroke-linecap: butt; stroke-linejoin: miter; stroke-miterlimit: 10; fill: none; fill-rule: nonzero; opacity: 1;" transform="translate(1.4065934065934016 1.4065934065934016) scale(2.81 2.81)" >
	<circle cx="44.997" cy="50.827" r="13.467" style="stroke: none; stroke-width: 1; stroke-dasharray: none; stroke-linecap: butt; stroke-linejoin: miter; stroke-miterlimit: 10; fill: rgb(126,198,197); fill-rule: nonzero; opacity: 1;" transform="  matrix(1 0 0 1 0 0) "/>
	<circle cx="26.475" cy="28.125" r="8.195" style="stroke: none; stroke-width: 1; stroke-dasharray: none; stroke-linecap: butt; stroke-linejoin: miter; stroke-miterlimit: 10; fill: rgb(241,123,123); fill-rule: nonzero; opacity: 1;" transform="  matrix(1 0 0 1 0 0) "/>
	<circle cx="6.725" cy="34.705" r="5.725" style="stroke: none; stroke-width: 1; stroke-dasharray: none; stroke-linecap: butt; stroke-linejoin: miter; stroke-miterlimit: 10; fill: rgb(241,123,123); fill-rule: nonzero; opacity: 1;" transform="  matrix(1 0 0 1 0 0) "/>
	<circle cx="19.895" cy="8.365" r="5.725" style="stroke: none; stroke-width: 1; stroke-dasharray: none; stroke-linecap: butt; stroke-linejoin: miter; stroke-miterlimit: 10; fill: rgb(241,123,123); fill-rule: nonzero; opacity: 1;" transform="  matrix(1 0 0 1 0 0) "/>
	<circle cx="63.525" cy="28.125" r="8.195" style="stroke: none; stroke-width: 1; stroke-dasharray: none; stroke-linecap: butt; stroke-linejoin: miter; stroke-miterlimit: 10; fill: rgb(247,191,80); fill-rule: nonzero; opacity: 1;" transform="  matrix(1 0 0 1 0 0) "/>
	<circle cx="83.27499999999999" cy="34.705" r="5.725" style="stroke: none; stroke-width: 1; stroke-dasharray: none; stroke-linecap: butt; stroke-linejoin: miter; stroke-miterlimit: 10; fill: rgb(247,191,80); fill-rule: nonzero; opacity: 1;" transform="  matrix(1 0 0 1 0 0) "/>
	<circle cx="70.10499999999999" cy="8.365" r="5.725" style="stroke: none; stroke-width: 1; stroke-dasharray: none; stroke-linecap: butt; stroke-linejoin: miter; stroke-miterlimit: 10; fill: rgb(247,191,80); fill-rule: nonzero; opacity: 1;" transform="  matrix(1 0 0 1 0 0) "/>
	<circle cx="44.995" cy="79.16499999999999" r="8.195" style="stroke: none; stroke-width: 1; stroke-dasharray: none; stroke-linecap: butt; stroke-linejoin: miter; stroke-miterlimit: 10; fill: rgb(126,198,197); fill-rule: nonzero; opacity: 1;" transform="  matrix(1 0 0 1 0 0) "/>
	<path d="M 45 65.288 c -7.977 0 -14.466 -6.489 -14.466 -14.466 c 0 -7.977 6.49 -14.467 14.466 -14.467 s 14.467 6.49 14.467 14.467 C 59.467 58.799 52.977 65.288 45 65.288 z M 45 38.355 c -6.874 0 -12.466 5.593 -12.466 12.467 S 38.126 63.288 45 63.288 s 12.467 -5.592 12.467 -12.466 S 51.874 38.355 45 38.355 z" style="stroke: none; stroke-width: 1; stroke-dasharray: none; stroke-linecap: butt; stroke-linejoin: miter; stroke-miterlimit: 10; fill: rgb(0,0,0); fill-rule: nonzero; opacity: 1;" transform=" matrix(1 0 0 1 0 0) " stroke-linecap="round" />
	<path d="M 26.479 37.316 c -5.071 0 -9.196 -4.125 -9.196 -9.195 c 0 -5.071 4.125 -9.196 9.196 -9.196 c 5.07 0 9.195 4.125 9.195 9.196 C 35.675 33.191 31.55 37.316 26.479 37.316 z M 26.479 20.925 c -3.968 0 -7.196 3.228 -7.196 7.196 c 0 3.967 3.228 7.195 7.196 7.195 c 3.967 0 7.195 -3.228 7.195 -7.195 C 33.675 24.153 30.447 20.925 26.479 20.925 z" style="stroke: none; stroke-width: 1; stroke-dasharray: none; stroke-linecap: butt; stroke-linejoin: miter; stroke-miterlimit: 10; fill: rgb(0,0,0); fill-rule: nonzero; opacity: 1;" transform=" matrix(1 0 0 1 0 0) " stroke-linecap="round" />
	<path d="M 6.725 41.43 C 3.017 41.43 0 38.413 0 34.705 s 3.017 -6.725 6.725 -6.725 s 6.725 3.017 6.725 6.725 S 10.433 41.43 6.725 41.43 z M 6.725 29.98 C 4.12 29.98 2 32.1 2 34.705 c 0 2.605 2.12 4.725 4.725 4.725 s 4.725 -2.12 4.725 -4.725 C 11.449 32.1 9.33 29.98 6.725 29.98 z" style="stroke: none; stroke-width: 1; stroke-dasharray: none; stroke-linecap: butt; stroke-linejoin: miter; stroke-miterlimit: 10; fill: rgb(0,0,0); fill-rule: nonzero; opacity: 1;" transform=" matrix(1 0 0 1 0 0) " stroke-linecap="round" />
	<path d="M 19.895 15.09 c -3.708 0 -6.725 -3.017 -6.725 -6.725 s 3.017 -6.725 6.725 -6.725 s 6.725 3.017 6.725 6.725 S 23.603 15.09 19.895 15.09 z M 19.895 3.641 c -2.605 0 -4.725 2.12 -4.725 4.725 s 2.12 4.725 4.725 4.725 s 4.725 -2.12 4.725 -4.725 S 22.5 3.641 19.895 3.641 z" style="stroke: none; stroke-width: 1; stroke-dasharray: none; stroke-linecap: butt; stroke-linejoin: miter; stroke-miterlimit: 10; fill: rgb(0,0,0); fill-rule: nonzero; opacity: 1;" transform=" matrix(1 0 0 1 0 0) " stroke-linecap="round" />
	<path d="M 63.521 37.316 c -5.07 0 -9.195 -4.125 -9.195 -9.195 c 0 -5.071 4.125 -9.196 9.195 -9.196 s 9.195 4.125 9.195 9.196 C 72.716 33.191 68.591 37.316 63.521 37.316 z M 63.521 20.925 c -3.968 0 -7.195 3.228 -7.195 7.196 c 0 3.967 3.228 7.195 7.195 7.195 s 7.195 -3.228 7.195 -7.195 C 70.716 24.153 67.488 20.925 63.521 20.925 z" style="stroke: none; stroke-width: 1; stroke-dasharray: none; stroke-linecap: butt; stroke-linejoin: miter; stroke-miterlimit: 10; fill: rgb(0,0,0); fill-rule: nonzero; opacity: 1;" transform=" matrix(1 0 0 1 0 0) " stroke-linecap="round" />
	<path d="M 83.275 41.43 c -3.708 0 -6.725 -3.017 -6.725 -6.725 s 3.017 -6.725 6.725 -6.725 S 90 30.997 90 34.705 S 86.983 41.43 83.275 41.43 z M 83.275 29.98 c -2.605 0 -4.725 2.12 -4.725 4.725 c 0 2.605 2.119 4.725 4.725 4.725 S 88 37.311 88 34.705 C 88 32.1 85.881 29.98 83.275 29.98 z" style="stroke: none; stroke-width: 1; stroke-dasharray: none; stroke-linecap: butt; stroke-linejoin: miter; stroke-miterlimit: 10; fill: rgb(0,0,0); fill-rule: nonzero; opacity: 1;" transform=" matrix(1 0 0 1 0 0) " stroke-linecap="round" />
	<path d="M 70.105 15.09 c -3.708 0 -6.725 -3.017 -6.725 -6.725 s 3.017 -6.725 6.725 -6.725 s 6.725 3.017 6.725 6.725 S 73.813 15.09 70.105 15.09 z M 70.105 3.641 c -2.605 0 -4.725 2.12 -4.725 4.725 s 2.119 4.725 4.725 4.725 s 4.725 -2.12 4.725 -4.725 S 72.711 3.641 70.105 3.641 z" style="stroke: none; stroke-width: 1; stroke-dasharray: none; stroke-linecap: butt; stroke-linejoin: miter; stroke-miterlimit: 10; fill: rgb(0,0,0); fill-rule: nonzero; opacity: 1;" transform=" matrix(1 0 0 1 0 0) " stroke-linecap="round" />
	<path d="M 45 88.359 c -5.07 0 -9.195 -4.125 -9.195 -9.196 c 0 -5.07 4.125 -9.195 9.195 -9.195 s 9.195 4.125 9.195 9.195 C 54.195 84.234 50.07 88.359 45 88.359 z M 45 71.968 c -3.967 0 -7.195 3.228 -7.195 7.195 s 3.228 7.196 7.195 7.196 c 3.968 0 7.195 -3.229 7.195 -7.196 S 48.968 71.968 45 71.968 z" style="stroke: none; stroke-width: 1; stroke-dasharray: none; stroke-linecap: butt; stroke-linejoin: miter; stroke-miterlimit: 10; fill: rgb(0,0,0); fill-rule: nonzero; opacity: 1;" transform=" matrix(1 0 0 1 0 0) " stroke-linecap="round" />
	<path d="M 12.153 33.896 c -0.419 0 -0.809 -0.265 -0.949 -0.684 c -0.175 -0.524 0.108 -1.09 0.632 -1.265 l 6.555 -2.185 c 0.527 -0.177 1.091 0.109 1.265 0.632 c 0.175 0.524 -0.108 1.09 -0.632 1.265 l -6.555 2.185 C 12.364 33.88 12.257 33.896 12.153 33.896 z" style="stroke: none; stroke-width: 1; stroke-dasharray: none; stroke-linecap: butt; stroke-linejoin: miter; stroke-miterlimit: 10; fill: rgb(0,0,0); fill-rule: nonzero; opacity: 1;" transform=" matrix(1 0 0 1 0 0) " stroke-linecap="round" />
	<path d="M 23.889 21.35 c -0.419 0 -0.809 -0.265 -0.949 -0.684 l -2.186 -6.555 c -0.175 -0.524 0.108 -1.09 0.632 -1.265 c 0.525 -0.176 1.09 0.109 1.265 0.632 l 2.186 6.555 c 0.175 0.524 -0.108 1.09 -0.632 1.265 C 24.101 21.333 23.994 21.35 23.889 21.35 z" style="stroke: none; stroke-width: 1; stroke-dasharray: none; stroke-linecap: butt; stroke-linejoin: miter; stroke-miterlimit: 10; fill: rgb(0,0,0); fill-rule: nonzero; opacity: 1;" transform=" matrix(1 0 0 1 0 0) " stroke-linecap="round" />
	<path d="M 66.111 21.35 c -0.104 0 -0.211 -0.017 -0.316 -0.052 c -0.523 -0.175 -0.807 -0.741 -0.632 -1.265 l 2.185 -6.556 c 0.174 -0.524 0.737 -0.809 1.265 -0.633 c 0.523 0.175 0.807 0.741 0.632 1.265 l -2.185 6.556 C 66.92 21.085 66.53 21.35 66.111 21.35 z" style="stroke: none; stroke-width: 1; stroke-dasharray: none; stroke-linecap: butt; stroke-linejoin: miter; stroke-miterlimit: 10; fill: rgb(0,0,0); fill-rule: nonzero; opacity: 1;" transform=" matrix(1 0 0 1 0 0) " stroke-linecap="round" />
	<path d="M 77.848 33.896 c -0.104 0 -0.211 -0.017 -0.316 -0.052 l -6.556 -2.185 c -0.523 -0.175 -0.807 -0.741 -0.632 -1.265 c 0.174 -0.523 0.737 -0.81 1.265 -0.632 l 6.556 2.185 c 0.523 0.175 0.807 0.741 0.632 1.265 C 78.656 33.631 78.267 33.896 77.848 33.896 z" style="stroke: none; stroke-width: 1; stroke-dasharray: none; stroke-linecap: butt; stroke-linejoin: miter; stroke-miterlimit: 10; fill: rgb(0,0,0); fill-rule: nonzero; opacity: 1;" transform=" matrix(1 0 0 1 0 0) " stroke-linecap="round" />
	<path d="M 36.488 41.388 c -0.29 0 -0.578 -0.125 -0.775 -0.368 l -4.829 -5.919 c -0.349 -0.428 -0.285 -1.058 0.143 -1.407 c 0.429 -0.348 1.059 -0.285 1.407 0.143 l 4.829 5.919 c 0.349 0.428 0.285 1.058 -0.143 1.407 C 36.934 41.314 36.71 41.388 36.488 41.388 z" style="stroke: none; stroke-width: 1; stroke-dasharray: none; stroke-linecap: butt; stroke-linejoin: miter; stroke-miterlimit: 10; fill: rgb(0,0,0); fill-rule: nonzero; opacity: 1;" transform=" matrix(1 0 0 1 0 0) " stroke-linecap="round" />
	<path d="M 53.478 41.43 c -0.222 0 -0.445 -0.074 -0.631 -0.225 c -0.428 -0.349 -0.492 -0.979 -0.144 -1.407 l 4.861 -5.96 c 0.35 -0.428 0.979 -0.493 1.407 -0.143 c 0.428 0.349 0.492 0.979 0.144 1.407 l -4.861 5.96 C 54.056 41.305 53.768 41.43 53.478 41.43 z" style="stroke: none; stroke-width: 1; stroke-dasharray: none; stroke-linecap: butt; stroke-linejoin: miter; stroke-miterlimit: 10; fill: rgb(0,0,0); fill-rule: nonzero; opacity: 1;" transform=" matrix(1 0 0 1 0 0) " stroke-linecap="round" />
	<path d="M 45 71.968 c -0.552 0 -1 -0.447 -1 -1 v -6.68 c 0 -0.553 0.448 -1 1 -1 s 1 0.447 1 1 v 6.68 C 46 71.521 45.552 71.968 45 71.968 z" style="stroke: none; stroke-width: 1; stroke-dasharray: none; stroke-linecap: butt; stroke-linejoin: miter; stroke-miterlimit: 10; fill: rgb(0,0,0); fill-rule: nonzero; opacity: 1;" transform=" matrix(1 0 0 1 0 0) " stroke-linecap="round" />
	<path d="M 51.277 48.567 c -0.444 0 -0.842 -0.255 -1.046 -0.65 c -0.041 -0.079 -0.083 -0.157 -0.128 -0.234 c -0.045 -0.077 -0.091 -0.153 -0.139 -0.228 c -0.24 -0.374 -0.262 -0.847 -0.04 -1.231 c 0.323 -0.559 0.131 -1.273 -0.428 -1.596 l -1.547 -0.893 c -0.559 -0.323 -1.273 -0.131 -1.596 0.428 l 0 0.001 c -0.219 0.379 -0.631 0.602 -1.068 0.581 c -0.19 -0.009 -0.381 -0.009 -0.572 0 c -0.436 0.021 -0.848 -0.203 -1.066 -0.581 l 0 0 c -0.323 -0.559 -1.037 -0.75 -1.596 -0.428 l -1.547 0.893 c -0.559 0.323 -0.75 1.037 -0.428 1.596 l 0 0 c 0.218 0.378 0.207 0.846 -0.03 1.214 c -0.103 0.161 -0.199 0.326 -0.286 0.495 c -0.2 0.389 -0.6 0.634 -1.037 0.634 h -0.001 c -0.645 0 -1.168 0.523 -1.168 1.168 v 1.787 c 0 0.645 0.523 1.168 1.168 1.168 l 0 0 c 0.444 0 0.842 0.255 1.046 0.65 c 0.041 0.079 0.083 0.157 0.128 0.234 c 0.045 0.077 0.091 0.153 0.139 0.228 c 0.24 0.374 0.262 0.847 0.04 1.231 c -0.323 0.559 -0.131 1.273 0.428 1.596 l 1.547 0.893 c 0.559 0.323 1.273 0.131 1.596 -0.428 l 0 -0.001 c 0.219 -0.379 0.631 -0.602 1.068 -0.581 c 0.19 0.009 0.381 0.009 0.572 0 c 0.436 -0.021 0.848 0.203 1.066 0.581 l 0 0 c 0.323 0.559 1.037 0.75 1.596 0.428 l 1.547 -0.893 c 0.559 -0.323 0.75 -1.037 0.428 -1.596 l 0 0 c -0.218 -0.378 -0.207 -0.846 0.03 -1.214 c 0.103 -0.161 0.199 -0.326 0.286 -0.495 c 0.2 -0.389 0.6 -0.634 1.037 -0.634 h 0.001 c 0.645 0 1.168 -0.523 1.168 -1.168 v -1.787 C 52.445 49.09 51.922 48.567 51.277 48.567 z" style="stroke: none; stroke-width: 1; stroke-dasharray: none; stroke-linecap: butt; stroke-linejoin: miter; stroke-miterlimit: 10; fill: rgb(247,191,80); fill-rule: nonzero; opacity: 1;" transform=" matrix(1 0 0 1 0 0) " stroke-linecap="round" />
	<path d="M 42.631 58.678 c -0.367 0 -0.739 -0.093 -1.079 -0.289 l -1.548 -0.894 c -0.501 -0.289 -0.86 -0.757 -1.01 -1.316 s -0.073 -1.145 0.217 -1.646 c 0.037 -0.064 0.016 -0.143 -0.016 -0.192 c -0.054 -0.084 -0.108 -0.173 -0.161 -0.264 c -0.056 -0.098 -0.105 -0.188 -0.151 -0.276 c -0.028 -0.055 -0.084 -0.111 -0.159 -0.111 c -1.196 0 -2.168 -0.973 -2.168 -2.168 v -1.786 c 0 -1.195 0.973 -2.168 2.168 -2.168 c 0.062 0 0.119 -0.035 0.148 -0.093 c 0.102 -0.196 0.212 -0.39 0.333 -0.577 c 0.035 -0.054 0.036 -0.12 0.004 -0.175 c -0.289 -0.501 -0.366 -1.085 -0.216 -1.645 c 0.15 -0.56 0.509 -1.027 1.011 -1.316 l 1.547 -0.894 c 1.034 -0.598 2.363 -0.242 2.961 0.793 c 0.032 0.054 0.081 0.089 0.152 0.083 c 0.224 -0.01 0.447 -0.011 0.669 0 c 0.072 0.013 0.122 -0.028 0.153 -0.082 c 0.599 -1.035 1.925 -1.392 2.962 -0.794 l 1.548 0.894 c 1.035 0.597 1.392 1.926 0.794 2.961 c -0.038 0.066 -0.017 0.144 0.016 0.193 c 0.056 0.087 0.112 0.179 0.165 0.271 c 0.048 0.083 0.099 0.176 0.147 0.27 c 0.028 0.055 0.084 0.11 0.158 0.11 c 1.195 0 2.168 0.973 2.168 2.168 v 1.786 c 0 1.195 -0.973 2.168 -2.168 2.168 c -0.063 0 -0.119 0.035 -0.148 0.092 c -0.102 0.197 -0.213 0.391 -0.333 0.578 c -0.035 0.054 -0.036 0.121 -0.005 0.176 c 0.289 0.499 0.366 1.083 0.216 1.644 c -0.149 0.56 -0.508 1.027 -1.01 1.316 l -1.548 0.894 c -1.034 0.597 -2.362 0.241 -2.961 -0.793 c -0.032 -0.056 -0.105 -0.084 -0.15 -0.083 c -0.226 0.01 -0.449 0.01 -0.672 -0.001 c -0.053 0 -0.119 0.028 -0.15 0.082 C 44.112 58.289 43.381 58.678 42.631 58.678 z M 42.634 44.578 c -0.028 0 -0.057 0.007 -0.083 0.022 l -1.547 0.894 c -0.069 0.04 -0.101 0.161 -0.061 0.229 c 0.407 0.707 0.386 1.571 -0.056 2.256 c -0.085 0.133 -0.165 0.27 -0.237 0.41 c -0.374 0.727 -1.112 1.178 -1.926 1.178 c -0.093 0 -0.169 0.075 -0.169 0.168 v 1.786 c 0 0.093 0.076 0.168 0.168 0.168 c 0.813 0 1.555 0.456 1.935 1.19 l 0.109 0.2 c 0.032 0.055 0.071 0.118 0.11 0.18 c 0.447 0.699 0.472 1.568 0.066 2.272 c -0.041 0.069 -0.008 0.191 0.06 0.23 l 1.548 0.894 c 0.081 0.047 0.184 0.019 0.23 -0.062 c 0.407 -0.705 1.173 -1.129 1.981 -1.081 c 0.162 0.01 0.321 0.009 0.479 0.001 c 0.801 -0.049 1.571 0.374 1.979 1.082 c 0.045 0.077 0.149 0.104 0.229 0.06 l 1.548 -0.894 c 0.08 -0.046 0.108 -0.149 0.062 -0.229 c -0.407 -0.706 -0.387 -1.57 0.055 -2.255 c 0.086 -0.134 0.164 -0.271 0.236 -0.411 c 0.373 -0.727 1.112 -1.178 1.928 -1.178 c 0.093 0 0.168 -0.075 0.168 -0.168 v -1.786 c 0 -0.093 -0.075 -0.168 -0.168 -0.168 c -0.814 0 -1.557 -0.457 -1.935 -1.192 c -0.032 -0.063 -0.067 -0.126 -0.104 -0.189 c -0.04 -0.069 -0.077 -0.13 -0.115 -0.188 c -0.447 -0.7 -0.471 -1.57 -0.063 -2.274 c 0.045 -0.079 0.018 -0.182 -0.063 -0.229 l -1.548 -0.894 c -0.082 -0.047 -0.183 -0.02 -0.23 0.063 c -0.406 0.706 -1.159 1.111 -1.982 1.08 c -0.156 -0.008 -0.315 -0.008 -0.474 0 c -0.803 0.034 -1.572 -0.375 -1.979 -1.079 C 42.75 44.609 42.693 44.578 42.634 44.578 z" style="stroke: none; stroke-width: 1; stroke-dasharray: none; stroke-linecap: butt; stroke-linejoin: miter; stroke-miterlimit: 10; fill: rgb(0,0,0); fill-rule: nonzero; opacity: 1;" transform=" matrix(1 0 0 1 0 0) " stroke-linecap="round" />
	<circle cx="45" cy="50.82" r="1.5" style="stroke: none; stroke-width: 1; stroke-dasharray: none; stroke-linecap: butt; stroke-linejoin: miter; stroke-miterlimit: 10; fill: rgb(0,0,0); fill-rule: nonzero; opacity: 1;" transform="  matrix(1 0 0 1 0 0) "/>
</g>
</svg>