<svg xmlns="http://www.w3.org/2000/svg" xmlns:xlink="http://www.w3.org/1999/xlink" version="1.1" width="256" height="256" viewBox="0 0 256 256" xml:space="preserve">

<defs>
</defs>
<g style="stroke: none; stroke-width: 0; stroke-dasharray: none; stroke-linecap: butt; stroke-linejoin: miter; stroke-miterlimit: 10; fill: none; fill-rule: nonzero; opacity: 1;" transform="translate(1.4065934065934016 1.4065934065934016) scale(2.81 2.81)" >
	<circle cx="44.075" cy="49.815" r="11.305" style="stroke: none; stroke-width: 1; stroke-dasharray: none; stroke-linecap: butt; stroke-linejoin: miter; stroke-miterlimit: 10; fill: rgb(219,228,237); fill-rule: nonzero; opacity: 1;" transform="  matrix(1 0 0 1 0 0) "/>
	<path d="M 55.383 49.814 c 0 -6.244 -5.062 -11.305 -11.305 -11.305 c -1.365 0 -2.673 0.242 -3.885 0.685 c -4.166 -1.724 -9.998 -2.748 -18.253 -2.748 c 3.07 -43.27 65.527 -38.839 62.457 4.432 l 5.277 11.981 c 1.067 2.423 -0.61 5.167 -3.254 5.322 l -3.017 0.177 c -0.497 0.029 -0.793 0.567 -0.551 1.003 c 1.181 2.127 1.445 4.643 0.729 6.968 l -0.099 0.321 c -0.279 0.906 -4.069 -0.826 -4.631 -0.07 c -0.248 0.334 2.829 3.221 2.537 3.521 c -1.253 1.288 -2.001 2.711 -2.075 4.312 c -0.089 1.94 -1.646 3.478 -3.587 3.402 c -21.051 -0.824 -22.837 -10.02 -24.164 -19.532 C 53.905 56.21 55.383 53.185 55.383 49.814 z" style="stroke: none; stroke-width: 1; stroke-dasharray: none; stroke-linecap: butt; stroke-linejoin: miter; stroke-miterlimit: 10; fill: rgb(201,207,212); fill-rule: nonzero; opacity: 1;" transform=" matrix(1 0 0 1 0 0) " stroke-linecap="round" />
	<path d="M 25.835 83.876 c 1.937 -12.274 2.22 -29.189 -0.553 -47.369 c 6.521 0.242 11.331 1.206 14.911 2.687 c -4.33 1.584 -7.42 5.741 -7.42 10.62 c 0 6.244 5.062 11.305 11.305 11.305 c 2.873 0 5.494 -1.073 7.488 -2.839 c 1.026 7.351 2.326 14.512 12.578 17.768 c 0.016 2.634 0.275 5.244 0.804 7.827 H 25.835 z" style="stroke: none; stroke-width: 1; stroke-dasharray: none; stroke-linecap: butt; stroke-linejoin: miter; stroke-miterlimit: 10; fill: rgb(176,182,188); fill-rule: nonzero; opacity: 1;" transform=" matrix(1 0 0 1 0 0) " stroke-linecap="round" />
	<path d="M 53.58 18.367 H 8.689 c -0.552 0 -1 -0.448 -1 -1 s 0.448 -1 1 -1 H 53.58 c 0.553 0 1 0.448 1 1 S 54.133 18.367 53.58 18.367 z" style="stroke: none; stroke-width: 1; stroke-dasharray: none; stroke-linecap: butt; stroke-linejoin: miter; stroke-miterlimit: 10; fill: rgb(219,228,237); fill-rule: nonzero; opacity: 1;" transform=" matrix(1 0 0 1 0 0) " stroke-linecap="round" />
	<path d="M 71.777 38.509 c -0.176 0 -0.354 -0.046 -0.516 -0.144 l -10.563 -6.365 H 8.689 c -0.552 0 -1 -0.448 -1 -1 s 0.448 -1 1 -1 h 52.288 c 0.182 0 0.36 0.05 0.517 0.144 l 10.801 6.508 c 0.473 0.285 0.625 0.899 0.34 1.373 C 72.447 38.337 72.116 38.509 71.777 38.509 z" style="stroke: none; stroke-width: 1; stroke-dasharray: none; stroke-linecap: butt; stroke-linejoin: miter; stroke-miterlimit: 10; fill: rgb(219,228,237); fill-rule: nonzero; opacity: 1;" transform=" matrix(1 0 0 1 0 0) " stroke-linecap="round" />
	<path d="M 39.733 50.813 H 8.689 c -0.552 0 -1 -0.447 -1 -1 s 0.448 -1 1 -1 h 31.043 c 0.552 0 1 0.447 1 1 S 40.285 50.813 39.733 50.813 z" style="stroke: none; stroke-width: 1; stroke-dasharray: none; stroke-linecap: butt; stroke-linejoin: miter; stroke-miterlimit: 10; fill: rgb(219,228,237); fill-rule: nonzero; opacity: 1;" transform=" matrix(1 0 0 1 0 0) " stroke-linecap="round" />
	<circle cx="57.925" cy="17.365" r="4.345" style="stroke: none; stroke-width: 1; stroke-dasharray: none; stroke-linecap: butt; stroke-linejoin: miter; stroke-miterlimit: 10; fill: rgb(247,191,80); fill-rule: nonzero; opacity: 1;" transform="  matrix(1 0 0 1 0 0) "/>
	<circle cx="74.955" cy="40.464999999999996" r="4.345" style="stroke: none; stroke-width: 1; stroke-dasharray: none; stroke-linecap: butt; stroke-linejoin: miter; stroke-miterlimit: 10; fill: rgb(126,198,197); fill-rule: nonzero; opacity: 1;" transform="  matrix(1 0 0 1 0 0) "/>
	<circle cx="44.074999999999996" cy="49.815" r="4.345" style="stroke: none; stroke-width: 1; stroke-dasharray: none; stroke-linecap: butt; stroke-linejoin: miter; stroke-miterlimit: 10; fill: rgb(241,123,123); fill-rule: nonzero; opacity: 1;" transform="  matrix(1 0 0 1 0 0) "/>
	<circle cx="4.345" cy="17.365" r="4.345" style="stroke: none; stroke-width: 1; stroke-dasharray: none; stroke-linecap: butt; stroke-linejoin: miter; stroke-miterlimit: 10; fill: rgb(247,191,80); fill-rule: nonzero; opacity: 1;" transform="  matrix(1 0 0 1 0 0) "/>
	<circle cx="4.345" cy="31.005" r="4.345" style="stroke: none; stroke-width: 1; stroke-dasharray: none; stroke-linecap: butt; stroke-linejoin: miter; stroke-miterlimit: 10; fill: rgb(126,198,197); fill-rule: nonzero; opacity: 1;" transform="  matrix(1 0 0 1 0 0) "/>
	<circle cx="4.345" cy="49.815" r="4.345" style="stroke: none; stroke-width: 1; stroke-dasharray: none; stroke-linecap: butt; stroke-linejoin: miter; stroke-miterlimit: 10; fill: rgb(241,123,123); fill-rule: nonzero; opacity: 1;" transform="  matrix(1 0 0 1 0 0) "/>
</g>
</svg>